<?xml version="1.0" encoding="UTF-8" standalone="no"?>
<!-- Created with Inkscape (http://www.inkscape.org/) -->

<svg
   xmlns:dc="http://purl.org/dc/elements/1.1/"
   xmlns:cc="http://creativecommons.org/ns#"
   xmlns:rdf="http://www.w3.org/1999/02/22-rdf-syntax-ns#"
   xmlns:svg="http://www.w3.org/2000/svg"
   xmlns="http://www.w3.org/2000/svg"
   xmlns:sodipodi="http://sodipodi.sourceforge.net/DTD/sodipodi-0.dtd"
   xmlns:inkscape="http://www.inkscape.org/namespaces/inkscape"
   width="800"
   height="120"
   viewBox="0 0 211.66667 31.75"
   version="1.1"
   id="svg6121"
   inkscape:version="0.92.1 unknown"
   sodipodi:docname="logo-header.svg">
  <defs
     id="defs6115" />
  <sodipodi:namedview
     id="base"
     pagecolor="#ffffff"
     bordercolor="#666666"
     borderopacity="1.0"
     inkscape:pageopacity="0.0"
     inkscape:pageshadow="2"
     inkscape:zoom="1.2305315"
     inkscape:cx="386.96924"
     inkscape:cy="15.050998"
     inkscape:document-units="mm"
     inkscape:current-layer="layer1"
     showgrid="false"
     fit-margin-top="0"
     fit-margin-left="0"
     fit-margin-right="0"
     fit-margin-bottom="0"
     units="px"
     inkscape:window-width="1851"
     inkscape:window-height="1053"
     inkscape:window-x="69"
     inkscape:window-y="27"
     inkscape:window-maximized="1" />
  <metadata
     id="metadata6118">
    <rdf:RDF>
      <cc:Work
         rdf:about="">
        <dc:format>image/svg+xml</dc:format>
        <dc:type
           rdf:resource="http://purl.org/dc/dcmitype/StillImage" />
        <dc:title></dc:title>
      </cc:Work>
    </rdf:RDF>
  </metadata>
  <g
     inkscape:label="Capa 1"
     inkscape:groupmode="layer"
     id="layer1"
     transform="translate(-136.8509,-241.44081)">
    <path
       style="stroke-width:0.07108513"
       d="m 241.61041,243.45395 0.0445,0.60048 0.37798,0.15548 -0.20016,2.12263 v 1.66556 0.7783 l -2.7352,0.53368 -3.04637,0.40031 v 0.93378 l 0.62281,-0.44478 1.6455,0.0447 1.44328,0.33716 1.33113,0.005 -0.0228,0.0151 -0.33831,4.21929 c 0.007,0.0326 0.0135,0.0649 0.0199,0.0916 -0.0199,-0.59234 0.7767,-2.19807 1.2698,-2.43336 0.52964,-0.25273 1.70536,-0.0976 1.99498,0.18785 0.23652,0.23569 0.37978,1.09386 0.16437,1.54222 -0.40412,0.87533 -1.61307,1.41296 -1.9813,1.57163 -0.19561,0.0951 0.73542,0.3057 1.99406,-0.50381 -0.33019,2.14253 -1.3857,2.71607 -2.18829,2.79424 0.37048,0.0318 1.01923,0.0873 1.37193,-0.0951 -0.24013,1.63368 -0.98127,1.68769 -2.07796,2.31071 0.0614,0.98066 0.18412,1.62735 0.21293,2.11261 0.0203,0.21163 -0.33075,0.26008 -0.44774,-0.0889 -0.13302,-0.4238 -0.39558,-1.26113 -0.3969,-2.07932 -0.12003,-0.0891 -0.23562,-0.18174 -0.34742,-0.27676 l -0.39873,4.97114 c 0.1653,-0.0341 0.33527,-0.0503 0.50245,-0.065 h 2.3e-4 c 0.0335,-1.2e-4 0.067,-8.8e-4 0.10054,2.3e-4 0.36168,0.027 0.72443,0.0832 1.06713,0.2054 0.26303,0.0821 0.4893,0.2479 0.74934,0.33717 0.13312,-0.0393 0.26629,-0.0786 0.39941,-0.11786 0.0229,-0.024 0.0799,0.004 0.0591,0.0367 -0.0841,0.0371 -0.16812,0.0744 -0.25123,0.11375 -0.0395,0.005 -0.0701,0.0588 -0.0404,0.091 0.19403,0.12087 0.3872,0.24307 0.58042,0.36521 0.11358,0.0693 0.24796,0.12909 0.38367,0.0994 0.29903,-0.0563 0.60399,-0.0671 0.90755,-0.0684 0.31541,-0.0124 0.63222,0.0204 0.93879,0.0953 0.0681,0.0153 0.14306,0.0375 0.22067,0.0641 l -0.034,-0.4238 c -0.0186,-0.003 -0.0368,-0.007 -0.0538,-0.0176 0.017,-0.004 0.0343,-0.007 0.0515,-0.0109 l -0.0495,-0.61803 c -0.0646,-0.0178 -0.13008,-0.0328 -0.19628,-0.0433 -0.50189,-0.074 -1.0236,-0.0623 -1.51031,0.0905 -0.0288,0.0147 -0.0644,0.0104 -0.0898,0.0315 -0.0281,0.0215 -0.0337,0.0729 0.004,0.0878 0.3535,0.22002 0.75533,0.35612 1.16539,0.42197 0.15665,0.0308 0.31665,0.0331 0.47532,0.0451 0.0302,0.0202 -0.006,0.0727 -0.0363,0.0549 -0.25396,0.038 -0.51395,0.0195 -0.76416,-0.0347 -0.43181,-0.0867 -0.82213,-0.29852 -1.22535,-0.4662 -0.0546,-0.0409 -0.1267,-0.026 -0.18876,-0.016 -0.0264,-0.0265 -0.0167,-0.0676 -0.0315,-0.0994 -0.0838,-0.0806 -0.16786,-0.16125 -0.25169,-0.24188 -0.49895,-0.4694 -0.93007,-1.0003 -1.34867,-1.60788 0.0419,-0.0484 0.10124,-0.0782 0.16254,-0.0937 0.0363,-10e-4 0.075,0.005 0.10441,0.0276 0.1164,0.13688 0.21548,0.2883 0.3203,0.43428 0.30448,0.44062 0.67357,0.89859 1.12322,1.26479 0.0755,0.0603 0.15161,0.13666 0.25418,0.14111 0.15844,-0.002 0.3145,-0.0352 0.46962,-0.0645 0.37231,-0.077 0.75362,-0.12441 1.13416,-0.098 0.14092,0.01 0.28177,0.029 0.42083,0.0572 l -1.14714,-14.302 -0.005,-0.003 1.21783,0.005 1.53812,-0.35951 1.64549,-0.0445 0.62259,0.44455 v -0.93377 l -3.04638,-0.40033 -2.73497,-0.53368 v -0.77829 -1.66556 l -0.20016,-2.12264 0.37797,-0.15548 0.0445,-0.60047 z m -1.25019,21.49996 c -0.0701,-0.002 -0.28097,0.004 -0.44409,0.0474 l -0.0256,0.31939 c 0.16376,0.11809 0.352,0.20197 0.55056,0.23207 0.45396,0.0688 0.91377,-0.004 1.3676,-0.047 0.0367,0.0105 0.0819,-0.0264 0.0695,-0.0652 -0.0319,-0.0307 -0.0727,-0.0491 -0.10966,-0.0727 -0.42586,-0.25311 -0.9183,-0.3724 -1.4084,-0.414 z m 2.59385,0.24963 c 0.0459,-0.0111 0.0473,0.0709 0.005,0.07 -0.0431,0.009 -0.0495,-0.074 -0.005,-0.07 z m -0.80519,0.3586 c -0.13633,-0.003 -0.2721,0.0204 -0.40625,0.0431 -0.33929,0.064 -0.68239,0.11401 -1.02815,0.12014 -0.26897,0.013 -0.54026,-0.0333 -0.78969,-0.13473 -0.0178,-0.007 -0.036,-0.0153 -0.054,-0.0228 l -0.0549,0.68392 c 0.43756,-0.1992 0.91811,-0.29896 1.39815,-0.30663 0.45005,-0.006 0.88782,0.11523 1.31949,0.22843 0.12683,0.0496 0.27337,0.028 0.38892,-0.0406 0.0363,-0.004 0.056,-0.0537 0.0328,-0.0816 -0.13378,-0.0933 -0.26871,-0.18482 -0.40556,-0.27356 -0.13068,-0.0763 -0.24832,-0.18518 -0.40077,-0.21566 z m 2.25646,0.42699 c -0.25037,-0.005 -0.50209,0.0168 -0.7384,0.0638 -0.0448,0.0148 -0.11079,0.008 -0.13108,0.0604 -0.004,0.0388 0.0395,0.0558 0.0682,0.0697 0.43167,0.22913 0.88774,0.42887 1.37375,0.50496 0.17745,0.0292 0.36143,0.0363 0.54075,0.0135 l 0.0632,-0.0999 -0.0299,-0.37364 c -0.3289,-0.15232 -0.73574,-0.23109 -1.14646,-0.23892 z m -3.33568,0.0632 c -0.22382,-0.004 -0.44917,0.009 -0.66772,0.0604 -0.18635,0.0499 -0.37509,0.10437 -0.54166,0.20449 -0.0276,0.007 -0.0467,0.0307 -0.0543,0.0577 l -0.003,0.034 c 0.003,0.0186 0.0108,0.036 0.0281,0.0472 0.23866,0.10574 0.49802,0.15682 0.75732,0.17645 0.54986,0.0389 1.11418,-0.006 1.63364,-0.19993 0.0468,-0.0241 0.10747,-0.0248 0.14294,-0.0675 0.0265,-0.0282 0.003,-0.0689 -0.0278,-0.0812 -0.36409,-0.16357 -0.76626,-0.22157 -1.16266,-0.23048 v -2.3e-4 c -0.035,0 -0.07,-10e-4 -0.10509,-8.8e-4 z m 2.06223,0.11216 c -0.0603,0.006 -0.1175,0.0431 -0.16893,0.0732 -0.0463,0.0109 -0.0826,0.0736 -0.0476,0.11376 0.33272,0.18508 0.66743,0.37708 0.94562,0.64037 0.13895,0.13382 0.26723,0.28225 0.35997,0.45229 0.1999,0.36793 0.18262,0.84287 -0.0458,1.19411 -0.18225,0.27581 -0.47142,0.46548 -0.77829,0.57723 -0.3857,0.13262 -0.8031,0.18086 -1.20756,0.12105 -0.26349,-0.0296 -0.52738,-0.11763 -0.73179,-0.29112 -0.15813,-0.11454 -0.25483,-0.28906 -0.34515,-0.45754 -0.0321,-0.1595 -0.0114,-0.33028 0.0627,-0.47555 0.06,-0.13757 0.18905,-0.2279 0.32075,-0.28997 0.0333,-0.01 0.0619,-0.0428 0.098,-0.0367 0.0304,0.009 0.0308,0.0475 0.004,0.0609 -0.14912,0.0936 -0.22242,0.27307 -0.22683,0.44409 -0.011,0.20975 0.0865,0.41296 0.23276,0.55921 0.27861,0.27172 0.66834,0.4134 1.05436,0.42129 0.32103,-1e-4 0.65218,-0.0686 0.92078,-0.25168 0.36333,-0.24766 0.55496,-0.70886 0.50381,-1.1419 -0.0211,-0.23076 -0.13247,-0.44272 -0.27356,-0.62259 -0.24836,-0.32379 -0.58908,-0.56084 -0.94084,-0.76006 -0.11156,-0.0579 -0.23052,-0.13176 -0.36179,-0.11102 -0.19776,0.0759 -0.39365,0.15726 -0.59569,0.22136 -0.5525,0.16614 -1.13708,0.21735 -1.71138,0.17166 -0.0715,-0.002 -0.20593,-0.021 -0.33854,-0.06 l 2.82411,4.46117 2.79561,-4.41603 c -0.14507,0.0146 -0.29105,0.0191 -0.43656,0.0127 -0.40697,-0.009 -0.80303,-0.12803 -1.1736,-0.28998 -0.23039,-0.0942 -0.44637,-0.21976 -0.67685,-0.31369 -0.0208,-0.007 -0.0412,-0.008 -0.0613,-0.007 z"
       id="path6098"
       inkscape:connector-curvature="0" />
  </g>
</svg>
