<?xml version="1.0" encoding="UTF-8" standalone="no"?>
<svg xmlns="http://www.w3.org/2000/svg" height="96.79" width="800" version="1.1" viewBox="0 0 211.66667 25.609454">
 <g transform="translate(-21.06 -248.8)">
  <g transform="translate(93.03)">
   <circle r="12.52" style="stroke-linejoin:round;color-rendering:auto;color:#000000;shape-rendering:auto;solid-color:#000000;stroke:#000;stroke-width:.5721;fill:none;mix-blend-mode:normal;image-rendering:auto;isolation:auto" cx="33.87" cy="261.6"/>
   <path style="fill-rule:evenodd" d="m36.35 252.5c-1.154-0.0124-2.391 0.2024-2.53 1.138-0.09978 0.7982 0.4987 1.364 0.4987 1.364s0.8581 0.3203 2.118 0.4827c1.323 0.1704 2.284 0.0827 2.284 0.0827s0.9423-0.8315 0.8315-1.563c-0.1109-0.7317-1.432-1.408-2.716-1.486-0.1579-0.01-0.3215-0.0163-0.4863-0.0181zm-5.659 0.8894c-0.4344 0.014-0.8921 0.1018-1.348 0.2899-1.215 0.5017-2.074 1.356-1.999 1.889 0.1034 0.7381 1.131 1.602 1.686 1.599 0.5555-0.003 1.012 0.0657 2.077-0.3447 0.542-0.2089 1.544-0.596 1.787-0.9018 0.1254-0.2352 0.4152-1.685-0.3452-2.108-0.4753-0.2646-1.134-0.4465-1.858-0.4232zm5.624 2.972c-0.6453 0.0117-1.341 0.0999-2.087 0.2775-6.679 1.573-9.021 5.302-7.258 8.391 1.455 2.55 6.162 5.688 11.42 3.894 6.16-2.103 5.543-12.7-2.072-12.56zm-10.35 0.003c-0.8208-0.0118-1.571 0.3838-2.034 0.8842-0.5292 0.5718-1.11 1.366-0.9049 2.083 0.2048 0.7169 1.877 0.8535 2.321 0.8108 0.4438-0.0427 0.9391-0.1964 1.366-0.6573 0.4267-0.4609 0.8195-1.11 0.8878-1.536 0 0-0.3246-1.399-1.281-1.553-0.1195-0.0192-0.2383-0.0293-0.3555-0.031zm6.643 1.696 1.426 0.4677-1.66 2.819c-0.3374 0.5729-0.3606 0.8259-0.1018 1.441 0.2618 0.6093 1.187 1.17 1.899 1.527 0.7052 0.3535 1.668 0.5264 2.298 0.3643 0.6546-0.2803 0.9484-0.4672 1.252-1.059l0.7922-1.546-2.003-1.005-0.9824 1.96-1.571-0.7876 1.921-3.339 4.859 2.436-1.979 3.948c-0.453 0.9036-1.382 1.375-2.393 1.612-1.007 0.2312-2.054 0.0749-3.14-0.4697-1.079-0.541-2.397-1.565-2.767-2.479-0.468-0.8626-0.4244-1.878 0.138-2.754z"/>
  </g>
 </g>
</svg>
